# xmcd
#
# Track frame offsets: 
#        150
#        21052
#        42720
#        64185
#        85315
#
# Disc length: 1392 seconds
#
# Revision: 2
# Processed by: cddbd v1.5.2PL0 Copyright (c) Steve Scherf et al.
# Submitted via: ExactAudioCopy v0.95b4
#
DISCID=3e056e05
DTITLE=TM NETWORK - Happinessx3 Lonelinessx3
DYEAR=1999
DGENRE=Pop
TTITLE0=Happinessx3 Lonelinessx3 TM NETWORK
TTITLE1=Happinessx3 Lonelinessx3 JULIO IGLESIAS JR.
TTITLE2=Happinessx3 Lonelinessx3 SHEILA E
TTITLE3=Happinessx3 Lonelinessx3 WANG LEE-HOM
TTITLE4=Happinessx3 Lonelinessx3 TM NETWORK (RADIO EDIT)
EXTD=
EXTT0=
EXTT1=
EXTT2=
EXTT3=
EXTT4=
PLAYORDER=
